# xmcd
#
# Track frame offsets:
#	150
#	13757
#	26840
#	45308
#	59778
#	81469
#	96391
#	110747
#	130715
#	144053
#	157271
#
# Disc length: 2269 seconds
#
# Revision: 1
# Processed by: cddbd v1.5.2PL0 Copyright (c) Steve Scherf et al.
# Submitted via: EasyCDDAExtractor 16.0.1.1
#
DISCID=9a08db0b
DTITLE=Deadnecks - Tornados And Trailers
DYEAR=1998
DGENRE=Americana
TTITLE0=Burnin' Down
TTITLE1=Tornados And Trailers
TTITLE2=Crystal Marie
TTITLE3=Another Empty Bottle
TTITLE4=Love And A .45
TTITLE5=Rosalita
TTITLE6=Shed A Tear
TTITLE7=El Mariachi
TTITLE8=On My Way
TTITLE9=Angeline
TTITLE10=Cindy's Waltz
EXTD=
EXTT0=
EXTT1=
EXTT2=
EXTT3=
EXTT4=
EXTT5=
EXTT6=
EXTT7=
EXTT8=
EXTT9=
EXTT10=
PLAYORDER=
